<mxfile host="app.diagrams.net" modified="2021-08-18T08:30:04.369Z" agent="5.0 (Windows)" etag="thwEYtygwGhQgDf9E-dj" version="14.9.7" type="github">
  <diagram id="b261rfS9QUF_8fJkJ7NG" name="Page-1">
    <mxGraphModel dx="1038" dy="536" grid="1" gridSize="10" guides="1" tooltips="1" connect="1" arrows="1" fold="1" page="1" pageScale="1" pageWidth="850" pageHeight="1100" math="0" shadow="0">
      <root>
        <mxCell id="0" />
        <mxCell id="1" parent="0" />
        <mxCell id="8hmMJqUUlGUreREt0pY1-1" value="" style="rounded=0;whiteSpace=wrap;html=1;" vertex="1" parent="1">
          <mxGeometry x="360" y="130" width="120" height="60" as="geometry" />
        </mxCell>
      </root>
    </mxGraphModel>
  </diagram>
</mxfile>
